<?xml version="1.0" encoding="UTF-8"?>
<svg id="Layer_1" data-name="Layer 1" xmlns="http://www.w3.org/2000/svg" viewBox="0 0 160.5 177.6">
  <defs>
    <style>
      .cls-1 {
        fill: #5b7e96;
      }
    </style>
  </defs>
  <path class="cls-1" d="M155.89,93.94l-29.69,21.55c-3.89,2.82-5.52,7.83-4.04,12.41l11.38,35.13c3.31,10.22-8.39,18.72-17.08,12.41l-29.79-21.62c-3.89-2.82-9.15-2.82-13.04,0l-29.66,21.53c-8.71,6.32-20.42-2.2-17.08-12.43l11.43-34.99c1.5-4.58-.13-9.6-4.03-12.43l-29.68-21.54c-8.71-6.32-4.24-20.09,6.52-20.09h36.6c4.81,0,9.07-3.09,10.56-7.67l11.35-34.85c3.32-10.21,17.76-10.23,21.11-.03l11.47,34.91c1.5,4.56,5.75,7.64,10.55,7.64h36.62c10.76,0,15.23,13.77,6.52,20.09Z"/>
</svg>